<?xml version="1.0" encoding="utf-8"?>
<!-- Generator: Adobe Illustrator 25.1.0, SVG Export Plug-In . SVG Version: 6.00 Build 0)  -->
<svg version="1.1"
	 id="svg8" inkscape:export-filename="C:\Users\User\Desktop\Р С”Р В°РЎР‚РЎвЂљР С‘Р Р…Р С”Р С‘\Р Т‘Р С•Р СР С‘Р С”.png" inkscape:export-xdpi="96" inkscape:version="1.0.2 (e86c870879, 2021-01-15, custom)" sodipodi:docname="Р Т‘Р С•Р СР С‘Р С”.svg" xmlns:cc="http://creativecommons.org/ns#" xmlns:dc="http://purl.org/dc/elements/1.1/" xmlns:inkscape="http://www.inkscape.org/namespaces/inkscape" xmlns:rdf="http://www.w3.org/1999/02/22-rdf-syntax-ns#" xmlns:sodipodi="http://sodipodi.sourceforge.net/DTD/sodipodi-0.dtd" xmlns:svg="http://www.w3.org/2000/svg"
	 xmlns="http://www.w3.org/2000/svg" xmlns:xlink="http://www.w3.org/1999/xlink" x="0px" y="0px" viewBox="0 0 841.9 595.3"
	 style="enable-background:new 0 0 841.9 595.3;" xml:space="preserve">
<style type="text/css">
	.st0{fill:#FFFFFF;}
	.st1{fill:#641C1C;}
	.st2{fill:#A02C2C;}
	.st3{fill:#C83737;}
	.st4{fill:#A4D137;}
	.st5{fill:#E08110;}
	.st6{fill:#F79D26;}
	.st7{fill:#CE730F;}
	.st8{fill:none;stroke:#FF7F2A;stroke-width:0.846;stroke-linecap:round;}
	.st9{fill:none;stroke:#FF7F2A;stroke-width:0.6348;stroke-linecap:round;}
	.st10{fill:none;stroke:#FF7F2A;stroke-width:0.4236;stroke-linecap:round;}
	.st11{fill:none;stroke:#FF7F2A;stroke-width:0.2762;stroke-linecap:round;}
	.st12{fill:none;stroke:#000000;stroke-width:0.4408;stroke-miterlimit:11.3386;}
	.st13{fill:none;stroke:#D85E1A;stroke-width:1.6078;stroke-miterlimit:11.3386;}
	.st14{fill:none;stroke:#D85E1A;stroke-width:1.2746;stroke-miterlimit:11.3386;}
	.st15{fill:#C87137;}
	.st16{fill:none;stroke:#000000;stroke-width:0.75;stroke-miterlimit:11.3386;}
	.st17{fill:#C8EA5E;}
	.st18{fill:#7CB212;}
	.st19{fill:#050505;}
</style>
<rect x="-15.5" y="-15.6" class="st0" width="886.7" height="610.9"/>
<sodipodi:namedview  bordercolor="#666666" borderopacity="1.0" id="base" inkscape:current-layer="layer1" inkscape:cx="396.91911" inkscape:cy="371.0773" inkscape:document-rotation="0" inkscape:document-units="mm" inkscape:pageopacity="0.0" inkscape:pageshadow="2" inkscape:snap-global="false" inkscape:window-height="728" inkscape:window-maximized="0" inkscape:window-width="1350" inkscape:window-x="0" inkscape:window-y="0" inkscape:zoom="0.49497475" pagecolor="#ffffff" showgrid="false">
	</sodipodi:namedview>
<path class="st1" d="M662,353.4V503h27.5c0,0,4.7-152.6,4.7-139.2s-1.6-10.5-1.6-10.5H662V353.4z"/>
<g id="g1366" transform="translate(-5.3453906,4.8108515)">
	<g id="g1353" transform="translate(0,0.53453905)">
		<rect id="rect1325" x="566.6" y="376.2" class="st2" width="17.1" height="159.6"/>
		<rect id="rect1327" x="595.6" y="367.7" class="st2" width="17.1" height="168.2"/>
		<rect id="rect1329" x="623.4" y="367.7" class="st2" width="17.1" height="168.2"/>
		<rect id="rect1331" x="654.5" y="380.5" class="st2" width="17.1" height="155.4"/>
		<rect id="rect1333" x="682.3" y="371.9" class="st2" width="17.1" height="162.9"/>
		
			<rect id="rect1335" x="637.3" y="443.7" transform="matrix(5.374995e-02 -0.9986 0.9986 5.374995e-02 228.4645 1145.6635)" class="st2" width="162.9" height="17.1"/>
		<rect id="rect1337" x="741.3" y="378.4" class="st2" width="17.1" height="155.4"/>
		<rect id="rect1339" x="770.2" y="377.3" class="st2" width="17.1" height="155.4"/>
	</g>
	<rect id="rect1341" x="549.5" y="395.6" class="st2" width="247.5" height="13.9"/>
	<rect id="rect1343" x="550.6" y="503.8" class="st2" width="245.4" height="15"/>
</g>
<path id="rect1001_1_" sodipodi:nodetypes="ccccc" class="st3" d="M145.3,92.6h29.4v122.5l-30.5,21.3L145.3,92.6z"/>
<polygon class="st2" points="166.6,92.6 166.6,220.9 174.9,215.1 174.9,92.6 "/>
<path class="st4" d="M2.4,542.2c7.7,5,14.2,11.7,19,19.5c0.7-9.5-0.8-19.1-4.3-27.9c7,6.9,12.5,15.5,15.7,24.8
	c-2.1-7.6-0.3-16.1,4.8-22.2c0.1,7.9,0.1,15.9,0.2,23.8c4.6-6.1,9.2-12.2,13.7-18.3c0.6,6.3,1.3,12.7,1.9,19
	c6.6-5.2,11.6-12.4,14-20.5c2.1,7.2,1.2,15.3-2.5,21.8c9.8-5,16.5-15.7,16.7-26.8c2.3,7.2,2.8,15,1.5,22.4
	c3.4-10.8,12.1-19.9,22.7-23.8c-6.7,7.2-14,16.4-11.3,25.9c5.4-2.3,10-6.2,13.1-11.2c2-3.2,3.3-6.7,5.7-9.6c2.4-2.9,6.3-5,9.8-3.9
	c-2.8,2.9-5.8,5.8-7.2,9.6c-1.4,3.8-0.7,8.6,2.6,11c2.7-3,5.4-6,8.1-9.1c-0.6,3.8,1.4,7.9,4.8,9.8c2.8-8.4,5.5-16.7,8.3-25.1
	c1.2,6.8,2.4,13.5,3.6,20.3c5.8-4.7,10.4-10.9,13.1-17.9c1.1,5.9,2.9,11.7,5.3,17.2c4-3.8,7.1-8.5,9.1-13.6
	c0.7,3.8,1.4,7.7,2.1,11.5c9.2-7.6,17-16.9,22.9-27.3c0.2,8.5-3.9,17-10.7,22.1c-1.9,1.4-4,2.6-5.1,4.6c-1.2,2-0.9,5.1,1.2,6
	c7.2-5.2,14-11.1,20.2-17.6c0.2,4.2,0.4,8.3,0.6,12.5c7.4-7,13.7-15.3,18.4-24.4c1.6,8.4,1.4,17.2-0.6,25.5
	c4.4-5.9,9.1-11.5,14-16.9c0.3,3.1,0.6,6.2,0.9,9.2c7.1-3.8,13.3-9.4,17.9-16c-0.6,5.9-2,11.7-4.1,17.2
	c8.3-11.1,17.4-21.7,27.2-31.6c-0.9,12.2-16.1,19.3-17.6,31.4c8.6-6.7,17.3-13.4,25.9-20.1c-2.4,5.7-4.7,11.5-7.1,17.2
	c4.8-5.4,10.2-10.3,16.1-14.4c-1.7,10.1-3.4,20.3-5.1,30.4c-11.9-2-23.9-3.8-35.9-3.7c-11.9,0.1-23.7,2.1-35.4,4.2
	c-50.3,8.9-100.9,19.1-152,18.7c-13.8-0.1-27.6-1-41.4-2.7c-4.7-0.6-11.9-0.5-13.1-6.5c-0.7-3.4,2.3-6.2,2.1-9.6
	C11.7,552,6.9,545.1,2.4,542.2z"/>
<g id="g1128" transform="translate(-0.53453905,-1.0690781)">
	<g id="g1015" transform="matrix(0.59293088,0,0,0.48981932,28.579988,44.569385)">
		<rect id="rect1009" x="234.2" y="75.6" width="9.6" height="24.6"/>
		<rect id="rect1007" x="202.1" y="74.6" width="8.6" height="25.7"/>
		
			<path id="path1004" inkscape:transform-center-x="-0.091345001" inkscape:transform-center-y="-4.9136897" sodipodi:nodetypes="caccccc" class="st3" d="
			M270.6,72.4c0,0-30.8,10.9-46.9,11.2c-17.4,0.3-51.2-10.3-51.2-10.3l24.1-42.7l24.1-42.7l24.9,42.2L270.6,72.4z"/>
	</g>
	<path id="path1021" sodipodi:nodetypes="cccccc" class="st5" d="M370.7,286.2l9,263.3l148.2-30.8l4-194.7l-165.1-46.5L370.7,286.2z
		"/>
	<ellipse id="path1027" class="st5" cx="528.8" cy="344.2" rx="16.6" ry="18.1"/>
	<path id="path1017" sodipodi:nodetypes="cccacc" class="st1" d="M256.1,28.6c33.4,88.4,86.6,179.3,146.2,258.3L558,340.2
		c0,0-80.8-109.9-115-168.6c-13.4-23-35-71.5-35-71.5L256.1,28.6z"/>
	
		<path id="path839" inkscape:transform-center-x="-0.51006857" inkscape:transform-center-y="-23.252449" sodipodi:nodetypes="cccscsc" class="st2" d="
		M419.4,290.3l-162.2-6.2l-160.6,6.4c0,0,58.6-77.7,80-116.7c24.2-43.9,78-149.5,78-149.5s50.4,97.2,77.6,143.8
		C356.3,209.6,419.4,290.3,419.4,290.3L419.4,290.3z"/>
	<path id="rect833" sodipodi:nodetypes="ccccc" class="st6" d="M124.9,282.8h269.5l-15.3,294.9L141,576.8L124.9,282.8z"/>
	
		<path id="path836" inkscape:transform-center-x="-0.44254144" inkscape:transform-center-y="-23.376135" sodipodi:nodetypes="cccacac" class="st6" d="
		M395,290.8l-138.8,6.4l-133.1-11.4c0,0,48.6-73.8,70.1-112.3c22.5-40.2,61.4-123.7,61.4-123.7s39.1,81.6,61.8,120.6
		C340.5,211.9,395,290.8,395,290.8L395,290.8z"/>
	<ellipse id="path841" class="st2" cx="253.8" cy="199.8" rx="46.3" ry="42.4"/>
	<ellipse id="ellipse843" cx="253.4" cy="200.3" rx="35" ry="34"/>
	<g id="g872" transform="matrix(0.59293088,0,0,0.58264016,28.579988,37.271899)">
		<ellipse id="path845" class="st7" cx="183.8" cy="471.8" rx="45" ry="47.1"/>
		<ellipse id="path847" class="st8" cx="183.8" cy="471.8" rx="39.4" ry="38.6"/>
		<ellipse id="ellipse849" class="st9" cx="183.8" cy="471.8" rx="29.5" ry="29.1"/>
		<ellipse id="ellipse851" class="st10" cx="183.8" cy="471.8" rx="19.2" ry="19.9"/>
		<ellipse id="ellipse853" class="st11" cx="183.8" cy="471.8" rx="12.9" ry="12.6"/>
	</g>
	<g id="g884" transform="matrix(0.59293088,0,0,0.58264016,29.847767,56.269978)">
		<ellipse id="ellipse874" class="st7" cx="187.7" cy="531.7" rx="45" ry="47.1"/>
		<ellipse id="ellipse876" class="st8" cx="187.7" cy="531.7" rx="39.4" ry="38.6"/>
		<ellipse id="ellipse878" class="st9" cx="187.7" cy="531.7" rx="29.5" ry="29.1"/>
		<ellipse id="ellipse880" class="st10" cx="187.7" cy="531.7" rx="19.2" ry="19.9"/>
		<ellipse id="ellipse882" class="st11" cx="187.7" cy="531.7" rx="12.9" ry="12.6"/>
	</g>
	<g id="g896" transform="matrix(0.59293088,0,0,0.58264016,30.798601,74.956613)">
		<ellipse id="ellipse886" class="st7" cx="190.7" cy="590.5" rx="45" ry="47.1"/>
		<ellipse id="ellipse888" class="st8" cx="190.7" cy="590.5" rx="39.4" ry="38.6"/>
		<ellipse id="ellipse890" class="st9" cx="190.7" cy="590.5" rx="29.5" ry="29.1"/>
		<ellipse id="ellipse892" class="st10" cx="190.7" cy="590.5" rx="19.2" ry="19.9"/>
		<ellipse id="ellipse894" class="st11" cx="190.7" cy="590.5" rx="12.9" ry="12.6"/>
	</g>
	<g id="g908" transform="matrix(0.59293088,0,0,0.58264016,31.749435,93.331804)">
		<ellipse id="ellipse898" class="st7" cx="193.6" cy="648.4" rx="45" ry="47.1"/>
		<ellipse id="ellipse900" class="st8" cx="193.6" cy="648.4" rx="39.4" ry="38.6"/>
		<ellipse id="ellipse902" class="st9" cx="193.6" cy="648.4" rx="29.5" ry="29.1"/>
		<ellipse id="ellipse904" class="st10" cx="193.6" cy="648.4" rx="19.2" ry="19.9"/>
		<ellipse id="ellipse906" class="st11" cx="193.6" cy="648.4" rx="12.9" ry="12.6"/>
	</g>
	<g id="g920" transform="matrix(0.59293088,0,0,0.58264016,32.700269,111.08411)">
		<ellipse id="ellipse910" class="st7" cx="196.5" cy="704.3" rx="45" ry="47.1"/>
		<ellipse id="ellipse912" class="st8" cx="196.5" cy="704.3" rx="39.4" ry="38.6"/>
		<ellipse id="ellipse914" class="st9" cx="196.5" cy="704.3" rx="29.5" ry="29.1"/>
		<ellipse id="ellipse916" class="st10" cx="196.5" cy="704.3" rx="19.2" ry="19.9"/>
		<ellipse id="ellipse918" class="st11" cx="196.5" cy="704.3" rx="12.9" ry="12.6"/>
	</g>
	<g id="g932" transform="matrix(0.59293088,0,0,0.58264016,112.25339,110.14978)">
		<ellipse id="ellipse922" class="st7" cx="442.7" cy="701.3" rx="45" ry="47.1"/>
		<ellipse id="ellipse924" class="st8" cx="442.7" cy="701.3" rx="39.4" ry="38.6"/>
		<ellipse id="ellipse926" class="st9" cx="442.7" cy="701.3" rx="29.5" ry="29.1"/>
		<ellipse id="ellipse928" class="st10" cx="442.7" cy="701.3" rx="19.2" ry="19.9"/>
		<ellipse id="ellipse930" class="st11" cx="442.7" cy="701.3" rx="12.9" ry="12.6"/>
	</g>
	<g id="g944" transform="matrix(0.59293088,0,0,0.58264016,112.57034,91.774589)">
		<ellipse id="ellipse934" class="st7" cx="443.7" cy="643.5" rx="45" ry="47.1"/>
		<ellipse id="ellipse936" class="st8" cx="443.7" cy="643.5" rx="39.4" ry="38.6"/>
		<ellipse id="ellipse938" class="st9" cx="443.7" cy="643.5" rx="29.5" ry="29.1"/>
		<ellipse id="ellipse940" class="st10" cx="443.7" cy="643.5" rx="19.2" ry="19.9"/>
		<ellipse id="ellipse942" class="st11" cx="443.7" cy="643.5" rx="12.9" ry="12.6"/>
	</g>
	<g id="g956" transform="matrix(0.59293088,0,0,0.58264016,113.20423,73.087954)">
		<ellipse id="ellipse946" class="st7" cx="445.6" cy="584.6" rx="45" ry="47.1"/>
		<ellipse id="ellipse948" class="st8" cx="445.6" cy="584.6" rx="39.4" ry="38.6"/>
		<ellipse id="ellipse950" class="st9" cx="445.6" cy="584.6" rx="29.5" ry="29.1"/>
		<ellipse id="ellipse952" class="st10" cx="445.6" cy="584.6" rx="19.2" ry="19.9"/>
		<ellipse id="ellipse954" class="st11" cx="445.6" cy="584.6" rx="12.9" ry="12.6"/>
	</g>
	<g id="g968" transform="matrix(0.59293088,0,0,0.58264016,112.88728,54.712763)">
		<ellipse id="ellipse958" class="st7" cx="444.7" cy="526.8" rx="45" ry="47.1"/>
		<ellipse id="ellipse960" class="st8" cx="444.7" cy="526.8" rx="39.4" ry="38.6"/>
		<ellipse id="ellipse962" class="st9" cx="444.7" cy="526.8" rx="29.5" ry="29.1"/>
		<ellipse id="ellipse964" class="st10" cx="444.7" cy="526.8" rx="19.2" ry="19.9"/>
		<ellipse id="ellipse966" class="st11" cx="444.7" cy="526.8" rx="12.9" ry="12.6"/>
	</g>
	<g id="g980" transform="matrix(0.59293088,0,0,0.58264016,113.20423,36.337572)">
		<ellipse id="ellipse970" class="st7" cx="445.6" cy="468.9" rx="45" ry="47.1"/>
		<ellipse id="ellipse972" class="st8" cx="445.6" cy="468.9" rx="39.4" ry="38.6"/>
		<ellipse id="ellipse974" class="st9" cx="445.6" cy="468.9" rx="29.5" ry="29.1"/>
		<ellipse id="ellipse976" class="st10" cx="445.6" cy="468.9" rx="19.2" ry="19.9"/>
		<ellipse id="ellipse978" class="st11" cx="445.6" cy="468.9" rx="12.9" ry="12.6"/>
	</g>
	<rect id="rect982" x="140.2" y="546.8" class="st5" width="239.9" height="30.9"/>
	<rect id="rect986" x="190.3" y="301.7" class="st3" width="19.8" height="207.4"/>
	<rect id="rect984" x="209.4" y="331.7" width="100.4" height="143.6"/>
	<rect id="rect988" x="309.7" y="301.7" class="st3" width="19.8" height="206.7"/>
	<polygon id="rect990" class="st3" points="172.2,335.7 172.1,316.2 347.5,314 347.7,333.5 	"/>
	<polygon id="rect992" class="st3" points="176.1,495.5 175.9,476 346.9,473.9 347.1,493.3 	"/>
	<path id="path994" inkscape:transform-center-x="-0.28893464" inkscape:transform-center-y="-3.5337932" class="st3" d="
		M309.1,316.5l-51,0.3l-51,0.3l24.8-18.2l24.8-18.2l26.2,17.9L309.1,316.5z"/>
	<rect id="rect997" x="250.7" y="374.8" class="st3" width="16.5" height="102.4"/>
	<polygon id="rect999" inkscape:transform-center-x="-0.30385837" inkscape:transform-center-y="0.75595166" class="st3" points="
		204.1,391.5 203.8,375.3 320.8,372.4 321,388.7 	">
	</polygon>
	<path id="path1023" class="st7" d="M379.2,546.8l149.1-30.9v23.8l-149.1,38L379.2,546.8L379.2,546.8z"/>
	<path id="path1025" class="st12" d="M390.9,333.1"/>
	<ellipse id="ellipse1029" class="st5" cx="529.7" cy="377.7" rx="16.6" ry="18.1"/>
	<ellipse id="ellipse1031" class="st5" cx="530.6" cy="415.2" rx="16.6" ry="20.3"/>
	<ellipse id="ellipse1033" class="st5" cx="529.7" cy="455.9" rx="16.6" ry="20.3"/>
	<ellipse id="ellipse1035" class="st5" cx="528.8" cy="495.6" rx="16.6" ry="18.5"/>
	<path id="path1037" class="st13" d="M395.3,332.3L531,361.4l1.8-0.9"/>
	<path id="path1041" class="st14" d="M392.7,387.9l140.2,8.8v-0.9"/>
	<path id="path1043" class="st13" d="M393.8,440.8l135.1-3.9l1.7-1.3"/>
	<path id="path1045" class="st13" d="M385.2,492.9l138.1-14.3l1.4-1.4"/>
	<path id="path1028" class="st2" d="M384,274.2l8,13.4l22.5,1.6L384,274.2z"/>
	<path id="path1030" class="st15" d="M124.7,281.7l-5.9,7.5h4.3l7-4.8L124.7,281.7z"/>
</g>
<path id="path1032" class="st16" d="M681.9,616.7"/>
<path class="st4" d="M657.3,343.1c-16.5-1-33.9-2.2-48-10.8s-23.4-27.2-15.9-41.7c2.4-4.7,6.5-9.9,4.2-14.7
	c-18.9,0.5-38.5,0.9-55.8-6.8c-17.2-7.6-31.2-25.8-27.4-44.1c9.3,2.5,20.1-2.5,24.2-11.1c-9.5-2.9-19.1-5.9-27.1-11.7
	s-14.3-14.7-14.1-24.5s8.6-19.4,18.5-18.8c3.4-8.7-5.7-16.8-12.7-23.1s-12.1-19.1-3.8-23.7c2.8-1.6,6.2-1.4,9.5-1.7
	c13.3-1.4,24.3-14,23.8-27.2c-0.2-5.2-2-10.4-1.6-15.6c0.8-9.1,9.1-16.9,18.3-17.2c9.2-0.3,18.1,6.9,19.5,16
	c13.2-5.1,17.2-21,21.7-34.3s16.2-27.9,29.7-23.7c14.1,4.3,16.4,25.7,30.4,30.6c8.5,2.9,17.5-1.5,25.9-4.8
	c13.6-5.4,29.5-7.6,42.8-1.5c13.3,6.1,22.4,22.4,16.5,35.6c14.2-2.9,29,11.5,26.2,25.5c-0.8,4.1-2.9,8.1-2.5,12.3
	c0.8,10.5,14.3,14,23.5,19.5c9.4,5.7,15.4,15.4,21.1,24.7c6,9.9,11.7,23.3,3.8,31.8c-4.4,4.8-12.1,6.4-14.9,12.2
	c-3.1,6.6,2.3,14.1,8.5,17.9c7.3,4.4,16.1,6.1,23.1,11c7,4.8,11.7,15,6.5,21.7c-5.9,7.4-18.8,4.6-25.7,11c-8,7.4-2.9,20.2-2.9,31
	c0,1.8-0.2,3.8-1.5,5c-1.4,1.4-3.6,1.5-5.6,1.5c-7.2,0.1-14.3,0.2-21.5,0.3c-0.4,9.9-0.9,20.1-5.6,28.9c-4.7,8.7-15,15.3-24.7,12.7
	c-7.5-2.1-13.6-9.3-21.3-8.4c-4.5,0.5-8.2,3.8-11.8,6.6c-19,14.6-45.9,18.6-68.4,10.2"/>
<g>
	<path class="st17" d="M514.4,233.6c0.1,1.2,0.4,2.4,0.6,3.5C515.6,235.7,515.5,234.5,514.4,233.6z"/>
	<path class="st17" d="M503.7,134.5c1.9,1.7,4,3.6,5.9,5.6c0.4,0,0.7-0.1,1.1-0.1c16.1-1.5,29.4-14.2,28.8-27.5
		c-0.2-5.3-2.4-10.5-1.9-15.8c0.9-9.2,11-17.2,22.2-17.5c11.2-0.3,22,7,23.6,16.2c16-5.1,20.8-21.3,26.3-34.8
		c5.5-13.4,19.6-28.3,36-24.1c17.1,4.4,19.9,26.1,36.8,31c10.3,3,21.3-1.6,31.4-4.9c7.7-2.5,15.9-4.3,24.2-5
		c-0.2-10.8-8-21.7-18.3-26.4c-13.3-6.1-29.2-3.8-42.8,1.5c-8.4,3.3-17.4,7.8-25.9,4.8c-14-4.8-16.3-26.2-30.4-30.6
		c-13.5-4.2-25.2,10.5-29.7,23.7c-4.5,13.2-8.5,29.2-21.7,34.3c-1.4-9-10.3-16.3-19.5-16c-9.2,0.3-17.6,8.2-18.3,17.2
		c-0.4,5.2,1.3,10.4,1.6,15.6c0.5,13.1-10.5,25.7-23.8,27.2c-3.2,0.3-6.6,0.2-9.5,1.7C491.6,115.4,496.7,128.2,503.7,134.5z"/>
</g>
<path class="st18" d="M824.8,222.7c-7-4.8-15.8-6.6-23.1-11c-6.3-3.8-11.6-11.3-8.5-17.9c2.7-5.9,10.5-7.5,14.9-12.2
	c7.8-8.5,2.1-21.9-3.8-31.8c-5.7-9.3-11.7-19.1-21.1-24.7c-9.2-5.5-22.6-9-23.5-19.5c-0.3-4.2,1.7-8.2,2.5-12.3
	c2.8-14-12-28.4-26.2-25.5c5.9-13.3-3.2-29.6-16.5-35.6c-13-5.9-28.3-3.9-41.6,1.1c11.9,3,21.6,14.8,19.1,26.2
	c-0.9,4.3-3.2,8.5-2.8,12.9c0.9,11,16,14.6,26.3,20.4c10.5,5.9,17.3,16.1,23.6,25.8c6.7,10.3,13.1,24.3,4.3,33.2
	c-4.9,5-13.6,6.7-16.7,12.8c-3.4,6.8,2.6,14.7,9.6,18.7c8.2,4.6,18,6.4,25.9,11.4c7.9,5,13.1,15.7,7.2,22.6
	c-6.6,7.7-21,4.8-28.8,11.5c-9,7.7-3.2,21.1-3.2,32.4c0,1.9-0.3,3.9-1.7,5.3c-1.6,1.4-4.1,1.6-6.3,1.6c-8,0.1-16,0.2-24,0.4
	c-0.4,10.3-1,21-6.3,30.1c-5.3,9.1-16.8,16-27.6,13.2c-8.4-2.2-15.2-9.7-23.8-8.7c-5.1,0.5-9.2,4-13.2,6.9
	c-11.2,8.1-24.9,13-39,14.6c2.6,2.9,5.6,5.5,8.9,7.5c14.1,8.6,31.4,9.8,48,10.8l-15,0.6c22.5,8.5,49.4,4.5,68.4-10.2
	c3.6-2.8,7.2-6,11.8-6.6c7.7-0.9,13.8,6.3,21.3,8.4c9.7,2.7,20-3.9,24.7-12.7c4.7-8.7,5.2-19,5.6-28.9c7.2-0.1,14.3-0.2,21.5-0.3
	c2,0,4.2-0.1,5.6-1.5c1.3-1.3,1.5-3.2,1.5-5c0-10.8-5.1-23.7,2.9-31c7-6.4,19.9-3.6,25.7-11C836.6,237.7,831.9,227.5,824.8,222.7z"
	/>
<path class="st1" d="M677,365c-1.5,0-15.1,4.4-15,2.9c0.8-14.7-1.1-59.4-3.4-92c-3.8-53.9-12.2-104.6-17.6-132.8
	c-0.5-3.1,3.8-4.3,5-1.5c12.5,29,33.1,82.4,37.6,126c5.7,55.5,8.3,62.2,9.8,75.5c0.1,1.5,1.2,17.4-0.3,17.4L677,365z"/>
<path class="st1" d="M662.9,317.6c0,0-17.5-40.4-33-55.6c-15.5-15.2-44.4-28.6-44.4-28.6v-4.8c0,0,46.4,11.2,54.5,19.2
	c8.1,8,27.5,36.7,27.5,36.7L662.9,317.6z"/>
<path class="st1" d="M669.1,233.4c0,0,28.1-59.3,28.1-78.3c0-8.3-6.2-20.6-13.3-31.8c-1.4-2.3,1.8-4.4,3.4-2.4
	c10.7,12.6,21,26.6,21,34.2c0,15.6-26.2,100.9-26.2,100.9L669.1,233.4z"/>
<path class="st19" d="M429,68.8c0,0,11.8-1,19.4,6.6s-0.3,10.5,7.6,13s14-3.6,14-3.6s5.9-11.6,11.6-11.6c5.7,0,16.5-3.9,16.5-3.9
	s-13-0.6-19.4-0.6c-6.5,0-15.1,10.1-15.1,10.1s-6.3-12.2-12.2-12.2S429,68.8,429,68.8z"/>
<path class="st19" d="M390.4,31.4c0,0,8.2-1.3,13.5,8.1s-0.2,13,5.3,16.1c5.5,3,9.7-4.5,9.7-4.5s4.1-14.3,8-14.3
	c4,0,11.4-4.8,11.4-4.8s-9-0.7-13.5-0.7s-10.5,12.5-10.5,12.5s-4.4-15-8.4-15C401.9,28.8,390.4,31.4,390.4,31.4z"/>
<polygon class="st2" points="281,315.8 232,315.9 255.7,296.1 "/>
<path class="st18" d="M513.4,510.8c7.2,5.7,13.1,13,17.1,21.2c1.6-9.4,1-19.1-1.6-28.2c6.3,7.6,10.9,16.6,13.3,26.2
	c-1.4-7.7,1.3-16.1,6.8-21.6c-0.7,7.9-1.4,15.8-2.1,23.7c5.1-5.6,10.3-11.3,15.4-16.9c0,6.4,0.1,12.7,0.1,19.1
	c7.1-4.5,12.7-11.3,15.9-19c1.4,7.4-0.3,15.3-4.6,21.5c10.3-4.1,17.9-14.1,19.2-25.1c1.6,7.4,1.3,15.2-0.7,22.5
	c4.4-10.4,13.9-18.6,24.8-21.5c-7.4,6.5-15.5,15-13.7,24.7c5.6-1.8,10.6-5.3,14.1-9.9c2.3-3,4-6.4,6.6-9s6.7-4.4,10.1-2.9
	c-3.1,2.6-6.3,5.3-8,8.9c-1.7,3.6-1.6,8.5,1.5,11.2c3-2.8,6-5.5,8.9-8.3c-1,3.7,0.6,8,3.8,10.2c3.5-8.1,7.1-16.1,10.6-24.2
	c0.5,6.8,1.1,13.7,1.6,20.5c6.2-4.1,11.4-9.9,14.8-16.6c0.5,6,1.7,11.9,3.6,17.6c4.3-3.4,7.9-7.8,10.4-12.7c0.3,3.9,0.7,7.8,1,11.7
	c9.9-6.7,18.6-15.3,25.4-25c-0.6,8.5-5.5,16.6-12.8,21c-2,1.2-4.2,2.2-5.6,4.1s-1.4,5,0.6,6.1c7.7-4.5,15-9.8,21.8-15.6
	c-0.2,4.2-0.4,8.3-0.5,12.5c8.1-6.3,15.1-13.9,20.6-22.6c0.8,8.5-0.2,17.2-3,25.4c4.9-5.4,10.1-10.6,15.5-15.5c0,3.1,0,6.2,0,9.3
	c7.4-3.1,14.1-8.1,19.3-14.3c-1.2,5.8-3.1,11.5-5.7,16.8c9.3-10.3,19.4-19.9,30.1-28.8c-2.1,12-17.9,17.6-20.5,29.6
	c9.2-5.9,18.5-11.7,27.7-17.6c-2.9,5.5-5.8,11-8.7,16.5c5.3-5,11.1-9.3,17.4-12.8c-2.7,9.9-5.3,19.9-8,29.8
	c-11.6-3.1-23.4-6.1-35.4-7.1c-11.9-1-23.8-0.1-35.6,0.8c-51,4.1-102.2,9.4-153.1,4.2c-13.7-1.4-27.4-3.6-40.9-6.6
	c-4.7-1-11.8-1.6-12.4-7.7c-0.3-3.4,2.9-5.9,3-9.4C521.8,521.5,517.6,514.2,513.4,510.8z"/>
</svg>
