<?xml version="1.0" encoding="UTF-8" standalone="no"?>
<!-- Created with Inkscape (http://www.inkscape.org/) -->

<svg
   version="1.1"
   id="svg7303"
   width="800"
   height="800"
   viewBox="0 0 800 800"
   sodipodi:docname="snowman-swing-publicdomainvectors.org.svg"
   inkscape:version="1.2 (dc2aedaf03, 2022-05-15)"
   xmlns:inkscape="http://www.inkscape.org/namespaces/inkscape"
   xmlns:sodipodi="http://sodipodi.sourceforge.net/DTD/sodipodi-0.dtd"
   xmlns="http://www.w3.org/2000/svg"
   xmlns:svg="http://www.w3.org/2000/svg">
  <defs
     id="defs7307">
    <clipPath
       clipPathUnits="userSpaceOnUse"
       id="clipPath7321">
      <path
         d="M 0,600 H 600 V 0 H 0 Z"
         id="path7319" />
    </clipPath>
  </defs>
  <sodipodi:namedview
     id="namedview7305"
     pagecolor="#ffffff"
     bordercolor="#000000"
     borderopacity="0.25"
     inkscape:showpageshadow="2"
     inkscape:pageopacity="0.0"
     inkscape:pagecheckerboard="0"
     inkscape:deskcolor="#d1d1d1"
     showgrid="false"
     inkscape:zoom="1.04625"
     inkscape:cx="400"
     inkscape:cy="400.4779"
     inkscape:window-width="1920"
     inkscape:window-height="1017"
     inkscape:window-x="-8"
     inkscape:window-y="-8"
     inkscape:window-maximized="1"
     inkscape:current-layer="g7311">
    <inkscape:page
       x="0"
       y="0"
       id="page7309"
       width="800"
       height="800" />
  </sodipodi:namedview>
  <g
     id="g7311"
     inkscape:groupmode="layer"
     inkscape:label="Page 1"
     transform="matrix(1.3333333,0,0,-1.3333333,0,800)">
    <path
       d="M 0,0.001 H 600 V 600 H 0 Z"
       style="fill:#bfc2d2;fill-opacity:1;fill-rule:nonzero;stroke:none"
       id="path7313" />
    <g
       id="g7315">
      <g
         id="g7317"
         clip-path="url(#clipPath7321)">
        <g
           id="g7323"
           transform="translate(380.209,182.2422)">
          <path
             d="m 0,0 c -0.753,0.203 -1.528,-0.246 -1.73,-0.999 -0.201,-0.754 0.248,-1.528 1.001,-1.73 l 31.575,-8.523 0.519,-6.593 c 0.063,-0.777 0.744,-1.359 1.522,-1.298 0.776,0.061 1.359,0.743 1.297,1.52 l -0.36,4.551 2.52,-1.813 c 0.632,-0.455 1.512,-0.31 1.967,0.32 0.455,0.632 0.312,1.514 -0.32,1.967 l -2.129,1.533 6.684,0.917 c 0.771,0.103 1.315,0.814 1.211,1.586 -0.104,0.772 -0.814,1.313 -1.586,1.208 L 32.272,-8.71 Z"
             style="fill:#110f0d;fill-opacity:1;fill-rule:evenodd;stroke:none"
             id="path7325" />
        </g>
        <path
           d="m 0,0.001 h 600 v 93.66 H 0 Z"
           style="fill:#eff3fb;fill-opacity:1;fill-rule:evenodd;stroke:none"
           id="path7327" />
        <g
           id="g7329"
           transform="translate(324.498,19.5986)">
          <path
             d="M 0,0 C 87.523,0 158.908,13.632 158.908,30.345 158.908,47.059 87.523,60.689 0,60.689 -87.524,60.689 -158.909,47.059 -158.909,30.345 -158.909,13.632 -87.524,0 0,0"
             style="fill:#dbdeed;fill-opacity:1;fill-rule:evenodd;stroke:none"
             id="path7331" />
        </g>
        <g
           id="g7333"
           transform="translate(407.5479,326.4375)">
          <path
             d="M 0,0 C 0,1.042 0.845,1.887 1.888,1.887 2.93,1.887 3.774,1.042 3.774,0 v -198.436 c 0,-1.043 -0.844,-1.888 -1.886,-1.888 -1.043,0 -1.888,0.845 -1.888,1.888 z"
             style="fill:#f5dcc1;fill-opacity:1;fill-rule:evenodd;stroke:none"
             id="path7335" />
        </g>
        <g
           id="g7337"
           transform="translate(169.2617,52.4424)">
          <path
             d="m 0,0 c 66.759,29.184 98.286,15.307 107.548,-25.784 4.03,33.585 30.175,53.761 134.409,26.584 -22.73,11.591 -45.459,23.181 -68.189,34.771 -29.348,14.967 -48.845,39.148 -57.249,71.001 -0.756,2.867 -1.513,5.736 -2.269,8.604 -6.701,25.401 -8.851,48.048 -7.047,74.255 0.573,8.32 1.145,16.644 1.718,24.964 1.059,15.395 9.883,28.054 23.96,34.375 30.605,13.743 130.684,8.323 161.29,22.066 -1.729,3.86 -3.46,7.72 -5.189,11.579 -38.832,-12.421 -147.138,-5.677 -185.971,-18.098 -4.371,15.573 -8.742,31.146 -13.114,46.719 -3.988,14.207 -1.922,27.978 6.057,40.39 7.943,12.355 15.885,24.709 23.827,37.063 -3.46,3.062 -6.921,6.123 -10.381,9.184 -8.404,-9.424 -16.81,-18.847 -25.214,-28.27 -17.921,-20.093 -24.855,-44.954 -19.92,-71.421 1.771,-9.498 3.541,-18.996 5.312,-28.493 3.234,-17.344 2.692,-32.806 -1.748,-49.881 -1.315,-5.06 -2.631,-10.121 -3.947,-15.181 -5.108,5.991 -10.215,11.983 -15.323,17.974 -18.134,21.273 -29.997,42.578 -38.53,69.196 -4.807,14.995 -9.615,29.991 -14.423,44.988 -4.125,-0.533 -8.25,-1.065 -12.376,-1.597 3.388,-21.844 6.775,-43.688 10.164,-65.532 3.463,-22.328 10.384,-40.817 22.434,-59.931 2.289,-3.63 4.578,-7.261 6.867,-10.892 15.09,-23.936 22.536,-47.92 23.654,-76.195 0.722,-18.262 1.445,-36.525 2.167,-54.787 C 49.131,52.106 43.328,38.477 31.696,28.146 21.13,18.766 10.565,9.383 0,0"
             style="fill:#602e15;fill-opacity:1;fill-rule:evenodd;stroke:none"
             id="path7339" />
        </g>
        <g
           id="g7341"
           transform="translate(240.0054,286.8223)">
          <path
             d="m 0,0 c -0.635,-4.844 -1.604,-9.737 -2.914,-14.772 -1.314,-5.06 -2.63,-10.121 -3.947,-15.181 -5.107,5.991 -10.215,11.983 -15.323,17.974 -18.133,21.273 -29.997,42.578 -38.529,69.196 l -1.075,3.351 -5.841,-2.944 c 19.764,-69.82 44.72,-75.757 62.888,-108.843 1.581,17.073 6.455,30.851 4.741,51.217 z"
             style="fill:#372015;fill-opacity:1;fill-rule:evenodd;stroke:none"
             id="path7343" />
        </g>
        <g
           id="g7345"
           transform="translate(179.4609,343.5151)">
          <path
             d="m 0,0 -0.169,0.524 c -4.808,14.996 -9.615,29.992 -14.423,44.988 -4.125,-0.533 -8.251,-1.065 -12.377,-1.597 l 7.214,-46.509 0.194,0.068 c 5.527,1.9 6.274,2.716 12.476,3.457 C -2.48,1.459 -2.734,0.068 -0.128,0 -0.086,-0.001 -0.043,-0.001 0,0 M 63.766,64.413 C 62.1,61.6 60.618,58.719 59.319,55.779 c 1.726,0.488 1.214,-2.622 2.927,-0.952 2.421,2.36 1.807,6.294 1.543,9.325 z"
             style="fill:#372015;fill-opacity:1;fill-rule:evenodd;stroke:none"
             id="path7347" />
        </g>
        <g
           id="g7349"
           transform="translate(190.2271,515.8579)">
          <path
             d="m 0,0 c 3.987,-1.696 5.332,0.299 9.511,-3.726 4.199,-4.047 7.183,-10.824 9.969,-15.993 1.209,-2.242 2.253,-2.968 4.923,-1.565 1.926,1.011 2.995,1.379 5.057,-0.042 7.064,-5.191 6.529,-14.361 8.382,-22.03 0.74,-3.062 1.498,-5.555 2.384,-8.548 0.658,-2.225 2.207,-10.29 3.345,-11.554 0.495,-0.551 0.496,-0.128 0.609,0.603 0.189,1.228 0.235,3.666 0.354,5.082 0.724,8.606 2.307,9.138 4.202,0.258 0.995,-4.655 1.337,-8.805 3.258,-13.209 1.824,-4.16 3.617,-7.304 1.822,-11.807 -2.292,-5.756 -2.543,-5.367 -1.992,-11.685 0.264,-3.032 0.88,-6.966 -1.541,-9.325 -1.763,-1.718 -1.17,1.62 -3.079,0.903 -1.347,-0.506 -6.173,-7.815 -6.91,-9.433 -1.586,-3.68 -1.044,-5.44 -3.37,-9.295 -1.935,-3.206 -6.158,-8.378 -9.335,-10.332 -6.03,-3.666 -12.39,-6.983 -17.114,-12.38 -3.022,-3.454 -1.307,-3.178 -6.127,-5.941 -3.373,-1.932 -12.919,-8.441 -16.44,-8.349 -2.606,0.068 -2.353,1.458 -6.957,0.93 -6.202,-0.74 -6.949,-1.557 -12.475,-3.456 -2.907,-0.999 -9.014,-3.87 -11.631,-3.072 -2.664,0.811 -2.243,3.909 -4.606,5.199 -2.458,1.342 -7.665,2.128 -10.652,2.929 -4.213,1.148 -6.956,1.935 -11.301,2.671 -9.401,1.593 -16.779,5.727 -23.564,12.377 -1.463,1.434 -2.639,2.615 -2.054,4.638 0.268,0.927 -1.28,1.866 -1.87,2.416 -3.378,3.202 -6.895,7.134 -8.433,11.577 -1.638,4.734 -3.505,16.268 -2.751,21.002 0.509,3.193 2.973,12.914 -3.525,6.95 -1.422,-1.305 -3.387,-3.766 -5.215,-2.166 -2.075,2.001 -3.261,4.996 -2.555,7.868 1.122,4.554 2.25,5.85 0.249,10.632 -1.463,3.469 -2.783,6.003 -1.372,9.84 1.936,5.266 10.153,7.539 9.596,9.97 -0.53,2.311 -6.888,3.83 -4.618,9.089 1.17,2.711 1.73,4.179 2.486,7.074 1.162,4.309 4.733,7.64 7.765,10.816 4.262,4.463 9.502,7.767 13.726,12.213 0.753,0.792 6.734,7.615 5.369,8.276 -0.679,0.328 -2.059,-0.433 -1.186,1.216 0.647,1.223 0.108,1.501 1.853,2.786 2.331,1.552 6.689,2.461 9.583,3.371 5.283,1.659 10.922,2.545 16.447,2.033 3.611,-0.334 6.67,-1.049 10.157,-1.531 2.314,-0.278 6.483,-0.942 5.708,2.682 -0.773,3.611 -2.771,6.016 2.744,6.911 2.089,0.338 10.258,0.787 9.744,-3.072 -0.319,-2.393 -0.966,-3.479 2.98,-2.897 3.519,0.52 6.436,1.557 10.242,1.929 C -10.388,3.596 -7.207,3.037 0,0"
             style="fill:#dbdeed;fill-opacity:1;fill-rule:evenodd;stroke:none"
             id="path7351" />
        </g>
        <g
           id="g7353"
           transform="translate(362.4893,310.8979)">
          <path
             d="m 0,0 c 38.576,2.768 82.446,4.076 100.943,12.381 -1.728,3.859 -3.46,7.72 -5.188,11.579 -22.846,-7.308 -69.737,-7.983 -112.381,-9.829 -0.035,-1.471 0.385,-2.89 1.589,-4.126 1.6,-1.646 -0.499,2.504 3.001,0.396 C -10.42,9.419 -8.874,8.423 -7.35,7.302 -5.064,5.62 -1.603,2.935 0,0"
             style="fill:#372015;fill-opacity:1;fill-rule:evenodd;stroke:none"
             id="path7355" />
        </g>
        <g
           id="g7357"
           transform="translate(257.2935,380.6089)">
          <path
             d="M 0,0 C 0.553,8.101 3.203,15.918 7.922,23.26 15.865,35.614 23.807,47.969 31.75,60.323 28.29,63.384 24.828,66.445 21.368,69.507 12.964,60.082 4.559,50.66 -3.846,41.236 -10.683,33.57 -15.918,25.211 -19.508,16.334 -18.6,14.814 -18.767,12.87 -18.496,9.965 -17.125,-0.088 -10.44,8.666 -7.011,8.31 -3.21,7.914 -5.754,3.478 -3.644,1.281 -2.963,0.572 -1.639,0.181 0,0"
             style="fill:#372015;fill-opacity:1;fill-rule:evenodd;stroke:none"
             id="path7359" />
        </g>
        <g
           id="g7361"
           transform="translate(305.9443,560.292)">
          <path
             d="m 0,0 c 3.625,1.871 0.506,2.466 0.73,3.372 0.267,1.07 3.512,0.442 4.348,0.091 2.384,-1.089 4.923,-3.503 7.138,-5.182 2.591,-1.965 10.877,-8.005 14.016,-7.522 4.122,0.968 0.959,2.325 6.847,0.584 5.181,-1.531 11.358,-1.767 15.998,-4.093 12.279,-6.155 2.246,-8.292 3.886,-11.729 0.396,-0.83 3.688,-4.342 4.575,-5.441 3.474,-4.345 2.694,-4.021 2.938,-9.104 0.648,-9.424 7.127,-6.596 9.705,-12.675 1.426,-3.365 2.224,-5.907 5.158,-8.27 5.344,-4.306 6.355,-5.618 2.78,-11.942 -2.566,-4.566 -2.544,-5.645 -2.162,-10.825 0.354,-4.782 0.98,-6.488 2.323,-10.834 1.179,-3.812 -1.255,-8.089 -3.102,-11.4 -3.008,-5.389 -5.159,-3.678 -5.865,-4.781 -0.525,-0.819 0.642,-2.562 0.017,-4.799 -1.007,-3.365 -2.859,-6.085 -3.978,-9.458 -2.143,-6.458 -3.551,-5.679 -8.386,-9.392 -3.883,-2.984 -6.113,-5.904 -9.408,-9.239 -1.563,-1.581 -3.157,-1.445 -1.329,-2.547 1.84,-1.112 -0.128,-1.923 -1.397,-2.756 -3.42,-2.25 -4.281,-2.312 -6.574,-5.815 -2.742,-4.192 -5.507,-5.607 -10.022,-7.155 -4.417,-1.516 -6.711,-7.886 -9.939,-7.926 -2.299,-0.029 -1.899,3.188 -2.987,2.401 -2.563,-1.852 -4.768,2.065 -8.469,1.563 -7.473,-1.02 -6.123,-0.674 -12.603,-3.977 -5.045,-2.571 -8.257,-2.337 -13.718,-1.004 -2.298,0.584 -12.563,3.449 -10.987,6.93 0.527,1.165 2.404,2.182 -1.87,1.329 -3.403,-0.679 -14.86,-2.443 -17.398,0.199 -2.11,2.197 0.433,6.633 -3.367,7.029 -3.429,0.357 -10.115,-8.398 -11.485,1.656 -0.455,4.894 0.327,7.061 -4.87,9.062 -2.986,1.151 -5.062,3.364 -4.935,6.724 0.176,4.619 1.038,4.583 -1.871,8.662 -4.988,6.992 -4.309,7.287 -12.433,10.965 -0.403,0.182 -0.807,0.365 -1.21,0.548 -1.436,0.656 -2.64,-0.173 -2.251,2.592 1.275,7.143 5.031,4.331 1.643,14.135 -3.263,9.444 -1.114,9 0.207,17.948 0.282,1.911 -0.033,2.698 1.153,4.023 1.081,1.207 -1.644,3.559 -1.869,5.467 -0.327,4.151 2.073,5.487 4.714,8.285 3.373,3.572 6.754,9.075 8.309,13.706 2.087,6.215 -5.81,1.234 -6.293,2.569 -0.375,2.713 7.063,11.478 7.227,14.906 0.118,2.471 -1.068,2.925 1.264,5.558 3.919,4.307 11.543,9.202 17.154,10.794 3.483,0.989 6.324,1.217 9.747,1.909 3.658,0.74 4.792,2.622 7.147,5.228 3.583,3.964 -2.378,4.007 0.761,6.003 3.8,2.082 9.953,1.538 14.071,0.891 4.936,-0.777 9.355,-1.937 14.325,-0.99 2.444,0.464 3.244,-0.123 6.3,0.892 C -4.133,-2.116 -2.03,-1.042 0,0"
             style="fill:#eff3fb;fill-opacity:1;fill-rule:evenodd;stroke:none"
             id="path7363" />
        </g>
        <g
           id="g7365"
           transform="translate(366.7852,394.3052)">
          <path
             d="m 0,0 c 2.445,1.885 5.135,3.852 8.013,1.588 2.484,-1.955 2.148,-0.97 5.037,0.631 4.995,2.768 10.338,3.964 15.554,5.944 3.761,1.427 8.541,4.452 12.198,6.463 0.683,0.376 5.337,3.146 5.939,3.212 2.792,0.304 2.221,-3.057 7.117,-2.964 4.791,0.124 8.139,0.791 13.107,0.292 6.238,-0.626 11.866,-1.679 18.24,-1.957 3.028,-0.131 12.077,-0.519 14.461,0.527 1.821,0.798 9.714,0.559 11.816,-0.286 2.625,-1.22 2.938,-3.268 4.651,-5.607 3.699,-5.042 9.381,-11.174 15.058,-13.842 2.283,-1.073 15.277,-5.453 16.758,-4.142 0.731,0.644 -0.884,2.888 1.233,1.412 3.707,-2.584 -0.494,-6.166 0.411,-9.348 1.106,-3.195 2.39,-3.631 2.999,-7.663 0.902,-5.981 0.782,-12.096 1.828,-18.231 0.48,-2.839 1.187,-9.301 3.512,-11.049 1.091,-0.823 0.464,-1.565 -0.463,-2.369 -2.444,-2.117 -2.789,-1.55 -4.687,-4.929 -3.564,-6.279 -5.958,-10.559 -8.43,-17.44 -0.562,-1.567 -1.695,-5.76 -4.011,-4.488 -2.173,1.197 -2.763,2.852 -6.01,1.21 -1.661,-0.838 -4.19,-2.717 -5.983,-3.796 -2.228,-1.319 -4.414,-2.359 -6.58,-3.596 -5.285,-3.026 2.361,-6.443 0.822,-9.192 -1.48,-2.638 -16.182,0.65 -19.412,0.884 -4.542,0.328 -7.04,-0.237 -11.245,-1.87 -0.747,-0.29 -2.42,-0.144 -3.274,-0.127 -9.412,-0.013 -17.301,-3.47 -26.184,-5.88 -3.212,-0.87 -6.227,-1.687 -9.416,-2.657 -3.144,-0.954 -14.425,-4.559 -8.93,2.85 3.377,4.569 3.637,6.364 -2.683,7.517 -3.252,0.596 -3.784,-0.021 -7,1.41 -3.403,1.515 0.637,-3.024 -7.007,-2.166 -4.052,0.455 -5.513,0.828 -9.754,0.554 -2.956,-0.19 -6.127,-0.591 -9.022,-0.691 -4.914,-0.032 -2.129,3.214 -0.949,6.171 0.583,1.46 2.177,5.874 1.603,7.247 -1.033,2.474 -8.515,7.098 -11.124,7.551 -1.692,0.293 -1.089,1.422 -1.239,3.187 -0.328,3.893 -5.249,7.743 -8.199,9.915 -1.526,1.122 -3.071,2.117 -4.689,3.1 -3.5,2.107 -1.399,-2.041 -3.001,-0.396 -2.09,2.147 -1.816,4.845 -0.897,7.416 1.702,5.163 -0.396,6.571 1.34,11.299 1.135,3.095 2.96,6.66 4.304,9.819 1.334,3.138 4.292,8.47 2.033,11.626 -1.252,1.749 -0.952,2.113 0.404,3.979 3.126,4.295 3.743,4.562 5.251,9.784 1.217,4.215 3.219,6.389 6.5,9.098"
             style="fill:#eff3fb;fill-opacity:1;fill-rule:evenodd;stroke:none"
             id="path7367" />
        </g>
        <g
           id="g7369"
           transform="translate(350.7021,236.5313)">
          <path
             d="m 0,0 c 4.925,-3.26 7.215,-7.879 8.325,-13.107 6.49,1.535 12.98,3.068 19.471,4.603 -2.36,4.5 -3.394,9.902 -1.873,16.965 C 16.146,10.869 7.722,7.046 0,0"
             style="fill:#1c1a19;fill-opacity:1;fill-rule:evenodd;stroke:none"
             id="path7371" />
        </g>
        <g
           id="g7373"
           transform="translate(366.1885,230.418)">
          <path
             d="M 0,0 C 10.841,3.981 21.146,3.078 23.019,-2.018 24.892,-7.115 17.621,-14.476 6.781,-18.459 -4.06,-22.441 -14.366,-21.539 -16.238,-16.441 -18.111,-11.345 -10.841,-3.984 0,0"
             style="fill:#5f6062;fill-opacity:1;fill-rule:evenodd;stroke:none"
             id="path7375" />
        </g>
        <g
           id="g7377"
           transform="translate(374.4111,137.582)">
          <path
             d="M 0,0 C 15.395,0 27.948,12.556 27.948,27.949 27.948,43.343 15.395,55.897 0,55.897 -15.394,55.897 -27.948,43.343 -27.948,27.949 -27.948,12.556 -15.394,0 0,0"
             style="fill:#eff3fb;fill-opacity:1;fill-rule:evenodd;stroke:none"
             id="path7379" />
        </g>
        <g
           id="g7381"
           transform="translate(374.4111,187.0918)">
          <path
             d="m 0,0 c 11.324,0 20.562,9.237 20.562,20.562 0,11.327 -9.238,20.562 -20.562,20.562 -11.325,0 -20.562,-9.235 -20.562,-20.562 C -20.562,9.237 -11.325,0 0,0"
             style="fill:#ffffff;fill-opacity:1;fill-rule:evenodd;stroke:none"
             id="path7383" />
        </g>
        <g
           id="g7385"
           transform="translate(367.0303,211.7461)">
          <path
             d="M 0,0 C 1.402,0 2.546,1.143 2.546,2.545 2.546,3.945 1.402,5.09 0,5.09 -1.401,5.09 -2.545,3.945 -2.545,2.545 -2.545,1.143 -1.401,0 0,0"
             style="fill:#1c1a19;fill-opacity:1;fill-rule:evenodd;stroke:none"
             id="path7387" />
        </g>
        <g
           id="g7389"
           transform="translate(385.9961,211.7461)">
          <path
             d="M 0,0 C 1.223,0 2.221,1.143 2.221,2.545 2.221,3.945 1.223,5.09 0,5.09 -1.224,5.09 -2.222,3.945 -2.222,2.545 -2.222,1.143 -1.224,0 0,0"
             style="fill:#1c1a19;fill-opacity:1;fill-rule:evenodd;stroke:none"
             id="path7391" />
        </g>
        <g
           id="g7393"
           transform="translate(381.0547,207.9297)">
          <path
             d="M 0,0 20.86,-2.195 0.598,-6.487 C -3.141,-7.278 -3.934,0.415 0,0"
             style="fill:#f2541b;fill-opacity:1;fill-rule:evenodd;stroke:none"
             id="path7395" />
        </g>
        <g
           id="g7397"
           transform="translate(367.7139,199.9639)">
          <path
             d="m 0,0 c -0.508,0.104 -1.005,-0.225 -1.108,-0.732 -0.104,-0.509 0.224,-1.005 0.733,-1.11 l 12.861,-2.643 6.062,1.813 c 0.498,0.149 0.781,0.673 0.634,1.171 -0.149,0.499 -0.674,0.782 -1.171,0.635 l -5.619,-1.68 z"
             style="fill:#110f0d;fill-opacity:1;fill-rule:evenodd;stroke:none"
             id="path7399" />
        </g>
        <g
           id="g7401"
           transform="translate(378.6162,178.7803)">
          <path
             d="M 0,0 C 1.266,0 2.297,1.029 2.297,2.295 2.297,3.559 1.266,4.591 0,4.591 -1.264,4.591 -2.296,3.559 -2.296,2.295 -2.296,1.029 -1.264,0 0,0"
             style="fill:#1c1a19;fill-opacity:1;fill-rule:evenodd;stroke:none"
             id="path7403" />
        </g>
        <g
           id="g7405"
           transform="translate(381.0049,170.8154)">
          <path
             d="M 0,0 C 1.539,0 2.796,1.256 2.796,2.795 2.796,4.335 1.539,5.592 0,5.592 -1.539,5.592 -2.794,4.335 -2.794,2.795 -2.794,1.256 -1.539,0 0,0"
             style="fill:#1c1a19;fill-opacity:1;fill-rule:evenodd;stroke:none"
             id="path7407" />
        </g>
        <g
           id="g7409"
           transform="translate(381.3037,160.4131)">
          <path
             d="M 0,0 C 1.869,0 3.394,1.525 3.394,3.395 3.394,5.264 1.869,6.788 0,6.788 -1.869,6.788 -3.393,5.264 -3.393,3.395 -3.393,1.525 -1.869,0 0,0"
             style="fill:#1c1a19;fill-opacity:1;fill-rule:evenodd;stroke:none"
             id="path7411" />
        </g>
        <g
           id="g7413"
           transform="translate(380.7051,150.8262)">
          <path
             d="M 0,0 C 1.565,0 2.845,1.279 2.845,2.845 2.845,4.411 1.565,5.69 0,5.69 -1.567,5.69 -2.846,4.411 -2.846,2.845 -2.846,1.279 -1.567,0 0,0"
             style="fill:#1c1a19;fill-opacity:1;fill-rule:evenodd;stroke:none"
             id="path7415" />
        </g>
        <g
           id="g7417"
           transform="translate(378.1104,143.8984)">
          <path
             d="M 0,0 C 1.127,0 2.046,0.921 2.046,2.046 2.046,3.174 1.127,4.093 0,4.093 -1.127,4.093 -2.047,3.174 -2.047,2.046 -2.047,0.921 -1.127,0 0,0"
             style="fill:#1c1a19;fill-opacity:1;fill-rule:evenodd;stroke:none"
             id="path7419" />
        </g>
        <g
           id="g7421"
           transform="translate(357.4854,182.2422)">
          <path
             d="m 0,0 c 0.753,0.203 1.527,-0.246 1.729,-0.999 0.202,-0.754 -0.246,-1.528 -1,-1.73 l -31.575,-8.523 -0.519,-6.593 c -0.062,-0.777 -0.742,-1.359 -1.522,-1.298 -0.776,0.061 -1.357,0.743 -1.298,1.52 l 0.361,4.551 -2.52,-1.813 c -0.632,-0.455 -1.512,-0.31 -1.968,0.32 -0.455,0.632 -0.31,1.514 0.322,1.967 l 2.126,1.533 -6.682,0.917 c -0.771,0.103 -1.313,0.814 -1.21,1.586 0.105,0.772 0.814,1.313 1.586,1.208 l 9.898,-1.356 z"
             style="fill:#110f0d;fill-opacity:1;fill-rule:evenodd;stroke:none"
             id="path7423" />
        </g>
        <g
           id="g7425"
           transform="translate(335.6768,326.4375)">
          <path
             d="M 0,0 C 0,1.042 0.845,1.887 1.886,1.887 2.928,1.887 3.772,1.042 3.772,0 v -198.436 c 0,-1.043 -0.844,-1.888 -1.886,-1.888 -1.041,0 -1.886,0.845 -1.886,1.888 z"
             style="fill:#f5dcc1;fill-opacity:1;fill-rule:evenodd;stroke:none"
             id="path7427" />
        </g>
        <g
           id="g7429"
           transform="translate(334.2842,139.5781)">
          <path
             d="m 0,0 h 80.254 c 2.745,0 4.99,-2.245 4.99,-4.99 v -10e-4 c 0,-2.745 -2.245,-4.991 -4.99,-4.991 H 0 c -2.745,0 -4.99,2.246 -4.99,4.991 V -4.99 C -4.99,-2.245 -2.745,0 0,0"
             style="fill:#602e15;fill-opacity:1;fill-rule:evenodd;stroke:none"
             id="path7431" />
        </g>
        <g
           id="g7433"
           transform="translate(388.0352,195.1592)">
          <path
             d="M 0,0 C 2.38,1.028 5.143,-0.069 6.171,-2.448 7.197,-4.83 6.1,-7.593 3.721,-8.62 c -3.897,-1.691 -9.015,-2.298 -14.939,-2.186 -5.635,0.108 -11.945,0.823 -18.591,1.835 -2.573,0.386 -4.346,2.787 -3.961,5.361 0.387,2.573 2.788,4.347 5.361,3.961 6.425,-0.979 12.369,-1.666 17.338,-1.762 C -6.395,-1.5 -2.561,-1.11 0,0"
             style="fill:#cc2d23;fill-opacity:1;fill-rule:evenodd;stroke:none"
             id="path7435" />
        </g>
        <g
           id="g7437"
           transform="translate(484.6699,510.1743)">
          <path
             d="m 0,0 c 4.616,0 8.383,3.767 8.383,8.384 0,4.618 -3.767,8.385 -8.383,8.385 -4.619,0 -8.386,-3.767 -8.386,-8.385 C -8.386,3.767 -4.619,0 0,0"
             style="fill:#ffffff;fill-opacity:1;fill-rule:evenodd;stroke:none"
             id="path7439" />
        </g>
        <g
           id="g7441"
           transform="translate(489.8613,570.8623)">
          <path
             d="M 0,0 C 3.077,0 5.588,2.511 5.588,5.59 5.588,8.668 3.077,11.18 0,11.18 -3.081,11.18 -5.592,8.668 -5.592,5.59 -5.592,2.511 -3.081,0 0,0"
             style="fill:#ffffff;fill-opacity:1;fill-rule:evenodd;stroke:none"
             id="path7443" />
        </g>
        <g
           id="g7445"
           transform="translate(514.2148,538.123)">
          <path
             d="M 0,0 C 2.859,0 5.192,2.332 5.192,5.19 5.192,8.049 2.859,10.381 0,10.381 -2.859,10.381 -5.191,8.049 -5.191,5.19 -5.191,2.332 -2.859,0 0,0"
             style="fill:#ffffff;fill-opacity:1;fill-rule:evenodd;stroke:none"
             id="path7447" />
        </g>
        <g
           id="g7449"
           transform="translate(558.5352,431.917)">
          <path
             d="m 0,0 c 3.517,0 6.387,2.87 6.387,6.389 0,3.518 -2.87,6.388 -6.387,6.388 -3.521,0 -6.39,-2.87 -6.39,-6.388 C -6.39,2.87 -3.521,0 0,0"
             style="fill:#ffffff;fill-opacity:1;fill-rule:evenodd;stroke:none"
             id="path7451" />
        </g>
        <g
           id="g7453"
           transform="translate(565.3213,336.8911)">
          <path
             d="M 0,0 C 4.617,0 8.386,3.767 8.386,8.384 8.386,13.003 4.617,16.77 0,16.77 -4.619,16.77 -8.386,13.003 -8.386,8.384 -8.386,3.767 -4.619,0 0,0"
             style="fill:#ffffff;fill-opacity:1;fill-rule:evenodd;stroke:none"
             id="path7455" />
        </g>
        <g
           id="g7457"
           transform="translate(455.9229,448.6865)">
          <path
             d="M 0,0 C 1.979,0 3.593,1.614 3.593,3.594 3.593,5.572 1.979,7.186 0,7.186 -1.98,7.186 -3.595,5.572 -3.595,3.594 -3.595,1.614 -1.98,0 0,0"
             style="fill:#ffffff;fill-opacity:1;fill-rule:evenodd;stroke:none"
             id="path7459" />
        </g>
        <g
           id="g7461"
           transform="translate(514.6152,491.8081)">
          <path
             d="M 0,0 C 1.757,0 3.192,1.435 3.192,3.194 3.192,4.953 1.757,6.388 0,6.388 -1.76,6.388 -3.195,4.953 -3.195,3.194 -3.195,1.435 -1.76,0 0,0"
             style="fill:#ffffff;fill-opacity:1;fill-rule:evenodd;stroke:none"
             id="path7463" />
        </g>
        <g
           id="g7465"
           transform="translate(185.6167,566.8706)">
          <path
             d="m 0,0 c 3.079,0 5.589,2.511 5.589,5.59 0,3.078 -2.51,5.59 -5.589,5.59 -3.079,0 -5.59,-2.512 -5.59,-5.59 C -5.59,2.511 -3.079,0 0,0"
             style="fill:#ffffff;fill-opacity:1;fill-rule:evenodd;stroke:none"
             id="path7467" />
        </g>
        <g
           id="g7469"
           transform="translate(85.4004,551.6978)">
          <path
             d="M 0,0 C 1.979,0 3.593,1.614 3.593,3.594 3.593,5.573 1.979,7.187 0,7.187 -1.98,7.187 -3.594,5.573 -3.594,3.594 -3.594,1.614 -1.98,0 0,0"
             style="fill:#ffffff;fill-opacity:1;fill-rule:evenodd;stroke:none"
             id="path7471" />
        </g>
        <g
           id="g7473"
           transform="translate(23.1138,504.585)">
          <path
             d="m 0,0 c 3.739,0 6.788,3.049 6.788,6.787 0,3.738 -3.049,6.788 -6.788,6.788 -3.738,0 -6.788,-3.05 -6.788,-6.788 C -6.788,3.049 -3.738,0 0,0"
             style="fill:#ffffff;fill-opacity:1;fill-rule:evenodd;stroke:none"
             id="path7475" />
        </g>
        <g
           id="g7477"
           transform="translate(33.8945,401.5728)">
          <path
             d="M 0,0 C 1.76,0 3.194,1.435 3.194,3.194 3.194,4.953 1.76,6.388 0,6.388 -1.759,6.388 -3.194,4.953 -3.194,3.194 -3.194,1.435 -1.759,0 0,0"
             style="fill:#ffffff;fill-opacity:1;fill-rule:evenodd;stroke:none"
             id="path7479" />
        </g>
        <g
           id="g7481"
           transform="translate(64.2383,290.5771)">
          <path
             d="M 0,0 C 3.079,0 5.59,2.51 5.59,5.59 5.59,8.668 3.079,11.179 0,11.179 -3.079,11.179 -5.59,8.668 -5.59,5.59 -5.59,2.51 -3.079,0 0,0"
             style="fill:#ffffff;fill-opacity:1;fill-rule:evenodd;stroke:none"
             id="path7483" />
        </g>
        <g
           id="g7485"
           transform="translate(150.8809,459.8657)">
          <path
             d="m 0,0 c 3.298,0 5.989,2.69 5.989,5.989 0,3.299 -2.691,5.989 -5.989,5.989 -3.299,0 -5.989,-2.69 -5.989,-5.989 C -5.989,2.69 -3.299,0 0,0"
             style="fill:#ffffff;fill-opacity:1;fill-rule:evenodd;stroke:none"
             id="path7487" />
        </g>
        <g
           id="g7489"
           transform="translate(170.0454,415.9463)">
          <path
             d="m 0,0 c 3.299,0 5.989,2.69 5.989,5.989 0,3.299 -2.69,5.989 -5.989,5.989 -3.299,0 -5.989,-2.69 -5.989,-5.989 C -5.989,2.69 -3.299,0 0,0"
             style="fill:#ffffff;fill-opacity:1;fill-rule:evenodd;stroke:none"
             id="path7491" />
        </g>
        <g
           id="g7493"
           transform="translate(244.708,175.5869)">
          <path
             d="m 0,0 c 7.478,0 13.576,6.097 13.576,13.575 0,7.477 -6.098,13.574 -13.576,13.574 -7.477,0 -13.575,-6.097 -13.575,-13.574 C -13.575,6.097 -7.477,0 0,0"
             style="fill:#ffffff;fill-opacity:1;fill-rule:evenodd;stroke:none"
             id="path7495" />
        </g>
        <g
           id="g7497"
           transform="translate(162.0596,172.3926)">
          <path
             d="m 0,0 c 2.859,0 5.19,2.331 5.19,5.189 0,2.86 -2.331,5.192 -5.19,5.192 -2.859,0 -5.19,-2.332 -5.19,-5.192 C -5.19,2.331 -2.859,0 0,0"
             style="fill:#ffffff;fill-opacity:1;fill-rule:evenodd;stroke:none"
             id="path7499" />
        </g>
        <g
           id="g7501"
           transform="translate(146.0894,238.6709)">
          <path
             d="M 0,0 C 2.859,0 5.19,2.331 5.19,5.19 5.19,8.05 2.859,10.382 0,10.382 -2.859,10.382 -5.191,8.05 -5.191,5.19 -5.191,2.331 -2.859,0 0,0"
             style="fill:#ffffff;fill-opacity:1;fill-rule:evenodd;stroke:none"
             id="path7503" />
        </g>
        <g
           id="g7505"
           transform="translate(221.5508,313.7339)">
          <path
             d="m 0,0 c 3.519,0 6.388,2.87 6.388,6.389 0,3.518 -2.869,6.388 -6.388,6.388 -3.519,0 -6.389,-2.87 -6.389,-6.388 C -6.389,2.87 -3.519,0 0,0"
             style="fill:#ffffff;fill-opacity:1;fill-rule:evenodd;stroke:none"
             id="path7507" />
        </g>
        <g
           id="g7509"
           transform="translate(295.4155,344.8774)">
          <path
             d="M 0,0 C 2.859,0 5.191,2.331 5.191,5.19 5.191,8.049 2.859,10.38 0,10.38 -2.858,10.38 -5.19,8.049 -5.19,5.19 -5.19,2.331 -2.858,0 0,0"
             style="fill:#ffffff;fill-opacity:1;fill-rule:evenodd;stroke:none"
             id="path7511" />
        </g>
        <g
           id="g7513"
           transform="translate(410.4053,221.1035)">
          <path
             d="m 0,0 c 4.177,0 7.587,3.408 7.587,7.585 0,4.179 -3.41,7.588 -7.587,7.588 -4.178,0 -7.586,-3.409 -7.586,-7.588 C -7.586,3.408 -4.178,0 0,0"
             style="fill:#ffffff;fill-opacity:1;fill-rule:evenodd;stroke:none"
             id="path7515" />
        </g>
        <g
           id="g7517"
           transform="translate(465.1045,185.9678)">
          <path
             d="m 0,0 c 5.279,0 9.584,4.305 9.584,9.581 0,5.279 -4.305,9.584 -9.584,9.584 -5.277,0 -9.582,-4.305 -9.582,-9.584 C -9.582,4.305 -5.277,0 0,0"
             style="fill:#ffffff;fill-opacity:1;fill-rule:evenodd;stroke:none"
             id="path7519" />
        </g>
        <g
           id="g7521"
           transform="translate(526.1934,111.7041)">
          <path
             d="m 0,0 c 4.619,0 8.385,3.767 8.385,8.384 0,4.618 -3.766,8.385 -8.385,8.385 -4.619,0 -8.386,-3.767 -8.386,-8.385 C -8.386,3.767 -4.619,0 0,0"
             style="fill:#ffffff;fill-opacity:1;fill-rule:evenodd;stroke:none"
             id="path7523" />
        </g>
        <g
           id="g7525"
           transform="translate(531.7842,240.2676)">
          <path
             d="M 0,0 C 2.856,0 5.188,2.332 5.188,5.19 5.188,8.05 2.856,10.381 0,10.381 -2.859,10.381 -5.191,8.05 -5.191,5.19 -5.191,2.332 -2.859,0 0,0"
             style="fill:#ffffff;fill-opacity:1;fill-rule:evenodd;stroke:none"
             id="path7527" />
        </g>
        <g
           id="g7529"
           transform="translate(465.9043,347.2725)">
          <path
             d="M 0,0 C 2.199,0 3.993,1.794 3.993,3.993 3.993,6.192 2.199,7.985 0,7.985 -2.201,7.985 -3.992,6.192 -3.992,3.993 -3.992,1.794 -2.201,0 0,0"
             style="fill:#ffffff;fill-opacity:1;fill-rule:evenodd;stroke:none"
             id="path7531" />
        </g>
        <g
           id="g7533"
           transform="translate(330.5508,518.958)">
          <path
             d="m 0,0 c 3.739,0 6.788,3.049 6.788,6.788 0,3.738 -3.049,6.788 -6.788,6.788 -3.738,0 -6.787,-3.05 -6.787,-6.788 C -6.787,3.049 -3.738,0 0,0"
             style="fill:#ffffff;fill-opacity:1;fill-rule:evenodd;stroke:none"
             id="path7535" />
        </g>
        <g
           id="g7537"
           transform="translate(313.3828,479.0313)">
          <path
             d="m 0,0 c 3.957,0 7.187,3.229 7.187,7.187 0,3.958 -3.23,7.187 -7.187,7.187 -3.959,0 -7.187,-3.229 -7.187,-7.187 C -7.187,3.229 -3.959,0 0,0"
             style="fill:#ffffff;fill-opacity:1;fill-rule:evenodd;stroke:none"
             id="path7539" />
        </g>
        <g
           id="g7541"
           transform="translate(311.3867,421.5361)">
          <path
             d="M 0,0 C 1.538,0 2.794,1.256 2.794,2.795 2.794,4.335 1.538,5.59 0,5.59 -1.541,5.59 -2.795,4.335 -2.795,2.795 -2.795,1.256 -1.541,0 0,0"
             style="fill:#ffffff;fill-opacity:1;fill-rule:evenodd;stroke:none"
             id="path7543" />
        </g>
        <g
           id="g7545"
           transform="translate(416.3936,536.5259)">
          <path
             d="m 0,0 c 6.598,0 11.979,5.38 11.979,11.978 0,6.597 -5.381,11.978 -11.979,11.978 -6.597,0 -11.978,-5.381 -11.978,-11.978 C -11.978,5.38 -6.597,0 0,0"
             style="fill:#ffffff;fill-opacity:1;fill-rule:evenodd;stroke:none"
             id="path7547" />
        </g>
        <g
           id="g7549"
           transform="translate(360.0967,578.8486)">
          <path
             d="M 0,0 C 2.419,0 4.393,1.973 4.393,4.392 4.393,6.811 2.419,8.784 0,8.784 -2.419,8.784 -4.392,6.811 -4.392,4.392 -4.392,1.973 -2.419,0 0,0"
             style="fill:#ffffff;fill-opacity:1;fill-rule:evenodd;stroke:none"
             id="path7551" />
        </g>
        <g
           id="g7553"
           transform="translate(63.0415,133.2637)">
          <path
             d="M 0,0 C 1.98,0 3.594,1.614 3.594,3.594 3.594,5.573 1.98,7.187 0,7.187 -1.979,7.187 -3.593,5.573 -3.593,3.594 -3.593,1.614 -1.979,0 0,0"
             style="fill:#ffffff;fill-opacity:1;fill-rule:evenodd;stroke:none"
             id="path7555" />
        </g>
        <g
           id="g7557"
           transform="translate(66.2354,81.3584)">
          <path
             d="M 0,0 C 1.979,0 3.593,1.614 3.593,3.594 3.593,5.573 1.979,7.187 0,7.187 -1.979,7.187 -3.594,5.573 -3.594,3.594 -3.594,1.614 -1.979,0 0,0"
             style="fill:#ffffff;fill-opacity:1;fill-rule:evenodd;stroke:none"
             id="path7559" />
        </g>
        <g
           id="g7561"
           transform="translate(134.5107,111.7021)">
          <path
             d="m 0,0 c 7.038,0 12.777,5.74 12.777,12.777 0,7.037 -5.739,12.777 -12.777,12.777 -7.037,0 -12.776,-5.74 -12.776,-12.777 C -12.776,5.74 -7.037,0 0,0"
             style="fill:#ffffff;fill-opacity:1;fill-rule:evenodd;stroke:none"
             id="path7563" />
        </g>
        <g
           id="g7565"
           transform="translate(97.7773,62.9922)">
          <path
             d="M 0,0 C 1.759,0 3.194,1.435 3.194,3.194 3.194,4.953 1.759,6.388 0,6.388 -1.759,6.388 -3.194,4.953 -3.194,3.194 -3.194,1.435 -1.759,0 0,0"
             style="fill:#ffffff;fill-opacity:1;fill-rule:evenodd;stroke:none"
             id="path7567" />
        </g>
        <g
           id="g7569"
           transform="translate(430.7686,72.5752)">
          <path
             d="m 0,0 c 3.517,0 6.387,2.869 6.387,6.388 0,3.518 -2.87,6.387 -6.387,6.387 -3.52,0 -6.39,-2.869 -6.39,-6.387 C -6.39,2.869 -3.52,0 0,0"
             style="fill:#ffffff;fill-opacity:1;fill-rule:evenodd;stroke:none"
             id="path7571" />
        </g>
        <g
           id="g7573"
           transform="translate(513.0166,39.834)">
          <path
             d="M 0,0 C 5.719,0 10.382,4.663 10.382,10.382 10.382,16.1 5.719,20.763 0,20.763 -5.716,20.763 -10.38,16.1 -10.38,10.382 -10.38,4.663 -5.716,0 0,0"
             style="fill:#ffffff;fill-opacity:1;fill-rule:evenodd;stroke:none"
             id="path7575" />
        </g>
        <g
           id="g7577"
           transform="translate(27.9053,228.29)">
          <path
             d="m 0,0 c 3.739,0 6.788,3.049 6.788,6.787 0,3.739 -3.049,6.788 -6.788,6.788 -3.738,0 -6.787,-3.049 -6.787,-6.788 C -6.787,3.049 -3.738,0 0,0"
             style="fill:#ffffff;fill-opacity:1;fill-rule:evenodd;stroke:none"
             id="path7579" />
        </g>
        <g
           id="g7581"
           transform="translate(99.3745,195.5488)">
          <path
             d="M 0,0 C 0.88,0 1.598,0.718 1.598,1.598 1.598,2.478 0.88,3.195 0,3.195 -0.879,3.195 -1.597,2.478 -1.597,1.598 -1.597,0.718 -0.879,0 0,0"
             style="fill:#ffffff;fill-opacity:1;fill-rule:evenodd;stroke:none"
             id="path7583" />
        </g>
      </g>
    </g>
  </g>
</svg>
